<?xml version="1.0" standalone="no"?><!DOCTYPE svg PUBLIC "-//W3C//DTD SVG 1.1//EN" "http://www.w3.org/Graphics/SVG/1.1/DTD/svg11.dtd"><svg t="1590215108324" class="icon" viewBox="0 0 1024 1024" version="1.1" xmlns="http://www.w3.org/2000/svg" p-id="1186" width="16" height="16" xmlns:xlink="http://www.w3.org/1999/xlink"><defs><style type="text/css"></style></defs><path d="M512 618.666667a21.333333 21.333333 0 0 1-12.8-4.266667l-170.666667-128a21.333333 21.333333 0 0 1 25.6-34.133333l153.813334 115.413333 264.533333-346.026667a21.333333 21.333333 0 1 1 33.706667 26.026667l-277.333334 362.666667A21.333333 21.333333 0 0 1 512 618.666667z" fill="#bfbfbf" p-id="1187"></path><path d="M512 854.613333h-21.333333A342.613333 342.613333 0 0 1 533.333333 170.666667a21.333333 21.333333 0 0 1-2.56 42.666666A299.946667 299.946667 0 1 0 810.666667 529.92a21.333333 21.333333 0 1 1 42.666666 3.413333 343.04 343.04 0 0 1-341.333333 321.28z" fill="#bfbfbf" p-id="1188"></path></svg>